<?xml version="1.0" encoding="utf-8"?>
<!-- Generator: Adobe Illustrator 16.0.0, SVG Export Plug-In . SVG Version: 6.00 Build 0)  -->
<!DOCTYPE svg PUBLIC "-//W3C//DTD SVG 1.1//EN" "http://www.w3.org/Graphics/SVG/1.1/DTD/svg11.dtd">
<svg version="1.1" id="Layer_1" xmlns="http://www.w3.org/2000/svg" xmlns:xlink="http://www.w3.org/1999/xlink" x="0px" y="0px"
	 width="315.987px" height="100.557px" viewBox="0 0 315.987 100.557" enable-background="new 0 0 315.987 100.557"
	 xml:space="preserve">
<g>
	<defs>
		<rect id="SVGID_1_" width="315.987" height="100.557"/>
	</defs>
	<clipPath id="SVGID_2_">
		<use xlink:href="#SVGID_1_"  overflow="visible"/>
	</clipPath>
	<path clip-path="url(#SVGID_2_)" fill="#0062B1" d="M189.848,70.466c0,0-12.581-9.64-19.948-20.092
		c-9.982-15.41-24.171-9.138-28.9-1.298c-4.712,7.808-12.081,12.807-13.159,14.11c-1.054,1.283-15.224,8.852-12.066,22.688
		c3.138,13.837,14.194,13.547,14.194,13.547s8.171,0.81,17.577-1.228c9.494-2.092,17.618,0.457,17.618,0.457
		s22.076,7.333,28.139-6.763C199.336,77.812,189.848,70.466,189.848,70.466 M202.208,43.054c0-3.11-2.598-12.51-12.36-12.51
		c-9.698,0-11.014,8.862-11.014,15.142c0,6.012,0.495,14.352,12.621,14.113C203.528,59.542,202.208,46.198,202.208,43.054
		 M169.899,32.089c8.147,1.073,13.425-7.551,14.438-14.081c1.043-6.522-4.188-14.076-9.973-15.359
		c-5.784-1.351-12.987,7.826-13.679,13.799C159.917,23.746,161.769,31.077,169.899,32.089 M143.631,31.077
		c6.092,0,11.038-6.952,11.038-15.537c0-8.609-4.946-15.54-11.038-15.54c-6.081,0-11.037,6.931-11.037,15.54
		C132.594,24.125,137.55,31.077,143.631,31.077 M123.136,53.016c11.054-2.38,9.55-15.415,9.197-18.292
		c-0.531-4.419-5.76-12.09-12.868-11.455c-8.945,0.734-10.268,13.53-10.268,13.53C108.015,42.723,112.126,55.346,123.136,53.016"/>
	<path clip-path="url(#SVGID_2_)" fill="#FFFFFF" d="M145.483,85.841H139.7c0,0-4.019-0.19-5.241-4.812
		c-0.624-2.039,0.085-4.367,0.384-5.306c0.337-0.942,1.659-3.037,4.466-3.885h6.175V85.841z M145.606,57.042v9.278h-7.654
		c0,0-7.653,0.585-10.327,9.197c-0.951,5.722,0.827,9.088,1.124,9.845c0.355,0.702,2.784,4.879,8.994,6.081h14.339V57.122
		L145.606,57.042z"/>
	<path clip-path="url(#SVGID_2_)" fill="#FFFFFF" d="M155.6,67.123v18.086c0,0,0.309,4.537,6.71,6.147h16.524V67.123h-7.118v18.239
		h-6.808c0,0-2.209-0.343-2.599-2.057v-16.28L155.6,67.123z"/>
	<path clip-path="url(#SVGID_2_)" fill="#E60013" d="M247.591,75.054h-30.48V66.71h30.48V75.054z M247.638,90.086
		c0,0-0.53,1.27-1.293,1.27H217.11v-8.908h30.527V90.086z M257.481,55.288v-7.631h-50.709l-0.075,7.72h21.812l-2.016,4.641h-18.567
		v38.239h44.043c4.591,0,4.207-4.569,4.207-4.569v-33.67h-18.562l1.601-4.729H257.481z"/>
	<path clip-path="url(#SVGID_2_)" fill="#E60013" d="M300.53,82.503l-7.276,3.814l-6.703-3.814H300.53z M273.952,82.656
		l12.802,7.327c-1.041,1.062-5.388,2.452-5.388,2.452h-8.568v5.651h11.622c3.401-0.688,9.83-3.887,9.83-3.887
		c2.645,2.381,7.729,3.368,7.729,3.368h13.157v-5.63h-9.948c-2.648-0.376-5.049-1.883-5.049-1.883l14.997-8.548v-4.601h-41.185
		V82.656z M302.055,67.951c0,0-0.71,1.267-1.636,1.267h-14.952V63.92h16.588V67.951z M310.081,58.308v-2.932h-8.026v2.932h-16.459
		v-2.812h-7.653v2.812h-5.145l0.112,5.733h5.032v10.74h27.76c3.878,0,4.379-4.029,4.379-4.029v-6.711h5.906v-5.733H310.081z
		 M315.451,47.859h-19.918v-3.838h-9.292v3.635h-22.877v50.537h8.241V54.196h43.846V47.859z"/>
	<path clip-path="url(#SVGID_2_)" fill="#E60013" d="M93.901,98.016h11.067V60.098H93.901V98.016z M93.901,55.89h11.067v-9.639
		H93.901V55.89z"/>
	<path clip-path="url(#SVGID_2_)" fill="#E60013" d="M77.926,90.635H62.858c-2.068-0.805-2.731-2.152-2.859-2.498
		c-0.158-0.272-0.595-1.562-0.059-2.7c1.206-2.369,3.214-2.935,3.214-2.935h14.772V90.635z M75.905,60.137l-23.619-0.066v7.965
		h20.718c0,0,4.922,1.182,4.922,4.299v2.807h-18.75c0,0-7.384,0.687-9.738,9.363c-0.39,4.108,0.157,6.131,0.414,6.853
		c0.281,0.77,2.434,5.602,8.881,6.778h29.852V70.973C88.585,70.973,87.129,61.677,75.905,60.137"/>
	<path clip-path="url(#SVGID_2_)" fill="#E60013" d="M33.678,64.386c0,0-1.234,2.204-4.508,2.726H11.579V56.179h17.55
		c0,0,3.827-0.169,5.067,2.864C34.196,59.043,34.954,62.195,33.678,64.386 M29.815,88.803L29.815,88.803H11.579V77.45h18.163
		l0.605,0.118c0,0,3.458,0.618,4.688,3.671c0,0,0.746,2.941-0.839,5.064C34.196,86.303,33.054,88.292,29.815,88.803 M46.975,84.695
		c0.384-9.212-7.997-12.417-7.997-12.417c7.07-3.664,6.191-12.894,6.191-12.894c-0.762-14.093-18.23-13.476-18.23-13.476H0v52.658
		h30.452C48.314,98.531,46.975,84.695,46.975,84.695"/>
</g>
</svg>
